<svg width="435" height="434" xmlns="http://www.w3.org/2000/svg" xmlns:xlink="http://www.w3.org/1999/xlink" xml:space="preserve" overflow="hidden"><g transform="translate(-1206 -965)"><path d="M1398.22 970 1448.15 970 1469.37 1013.65C1483.1 1017.39 1496.21 1023 1508.69 1029.86L1555.49 1014.27 1591.07 1049.81 1575.46 1096.58C1582.33 1108.42 1587.95 1121.52 1591.69 1135.24L1636 1156.44 1636 1206.32 1592.31 1228.14C1588.57 1241.86 1582.95 1254.95 1576.09 1267.42L1591.69 1314.19 1556.12 1349.73 1509.31 1334.14C1497.45 1341 1484.35 1346.61 1470.62 1350.35L1448.78 1394 1398.85 1394 1377.01 1350.35C1363.28 1346.61 1350.17 1341 1337.69 1334.14L1290.88 1349.73 1255.31 1314.19 1270.91 1267.42C1264.05 1255.58 1258.43 1242.48 1254.69 1228.76L1211 1206.94 1211 1157.06 1254.69 1135.86C1258.43 1122.14 1264.05 1109.05 1270.91 1096.58L1255.31 1049.81 1290.88 1014.27 1337.69 1029.86C1349.55 1023 1362.65 1017.39 1376.38 1013.65Z" stroke="#545454" stroke-width="9" stroke-miterlimit="8" fill="none" fill-rule="evenodd"/></g></svg>