<svg width="1024" height="234" viewBox="0 0 1024 234" fill="none" xmlns="http://www.w3.org/2000/svg">
<path d="M78.4166 141H65.8406L57.6806 131.688H49.0406V124.248H61.5686C64.4966 124.248 66.2726 122.424 66.2726 119.592C66.2726 116.712 64.4966 114.936 61.5686 114.936H44.7686V141H35.9366V106.104H61.5686C69.9686 106.104 74.9606 111.24 74.9606 119.256C74.9606 124.968 72.2726 128.808 68.0006 130.536L78.4166 141ZM145.909 141H137.125C126.997 141 119.557 133.32 119.557 123.192C119.557 112.92 126.997 106.104 137.125 106.104H145.909C156.325 106.104 163.525 113.064 163.525 123.192C163.525 133.32 156.133 141 145.909 141ZM137.125 132.12H145.909C151.093 132.12 154.693 128.568 154.693 123.624C154.693 118.632 151.045 114.936 145.909 114.936H137.125C132.133 114.936 128.437 118.632 128.437 123.624C128.437 128.616 132.037 132.12 137.125 132.12ZM244.429 141H224.893C214.765 141 207.325 133.32 207.325 123.192C207.325 112.92 214.765 106.104 224.893 106.104H244.429V114.936H224.893C219.901 114.936 216.205 118.632 216.205 123.624C216.205 128.616 219.805 132.12 224.893 132.12H244.429V141ZM324.588 141H315.708V127.032H302.316V119.544H315.708V106.104H324.588V141ZM298.092 141H289.212V106.104H298.092V141ZM415.777 141H405.121L400.561 133.272H387.601L391.537 126.6H396.625L391.633 118.152L378.193 141H368.113L387.697 108.456C388.753 106.728 390.049 105.624 391.969 105.624C393.841 105.624 395.137 106.728 396.193 108.456L415.777 141ZM510.67 141H501.934L497.23 121.464L488.494 138.216C487.438 140.232 486.142 141.48 484.03 141.48C481.918 141.48 480.622 140.232 479.566 138.216L470.878 121.464L466.174 141H457.486L465.598 109.224C466.222 106.824 467.662 105.624 469.918 105.624C471.79 105.624 473.374 106.728 474.286 108.552L484.318 128.232L494.302 108.552C495.214 106.728 496.606 105.624 498.478 105.624C500.59 105.624 501.982 106.824 502.606 109.224L510.67 141ZM581.413 141H554.533V106.104H580.357C587.605 106.104 592.501 109.176 592.501 115.272C592.501 119.304 590.629 121.272 589.285 122.232C591.397 123.432 593.269 126.12 593.269 129.384C593.269 136.824 588.325 141 581.413 141ZM581.221 126.6H567.637V119.928H580.597C582.565 119.928 583.477 118.92 583.477 117.432C583.477 115.944 582.565 114.888 580.597 114.888H563.365V132.12H581.221C583.189 132.12 584.149 131.016 584.149 129.336C584.149 127.656 583.189 126.6 581.221 126.6ZM663.802 141H655.018C644.89 141 637.45 133.32 637.45 123.192C637.45 112.92 644.89 106.104 655.018 106.104H663.802C674.218 106.104 681.418 113.064 681.418 123.192C681.418 133.32 674.026 141 663.802 141ZM655.018 132.12H663.802C668.986 132.12 672.586 128.568 672.586 123.624C672.586 118.632 668.938 114.936 663.802 114.936H655.018C650.026 114.936 646.33 118.632 646.33 123.624C646.33 128.616 649.93 132.12 655.018 132.12ZM744.631 141H735.751V114.936H723.319V106.104H757.015V114.936H744.631V141ZM810.087 141H801.207V106.104H810.087V141ZM892.392 141H872.856C862.728 141 855.288 133.32 855.288 123.192C855.288 112.92 862.728 106.104 872.856 106.104H892.392V114.936H872.856C867.864 114.936 864.168 118.632 864.168 123.624C864.168 128.616 867.768 132.12 872.856 132.12H892.392V141ZM963.766 141H937.222V132.12H963.766C965.83 132.12 967.078 131.16 967.078 129.432C967.078 127.704 965.83 126.6 963.766 126.6H948.214C941.062 126.6 936.646 122.472 936.646 116.424C936.646 110.52 940.774 106.104 948.31 106.104H973.702V114.936H948.31C946.87 114.936 945.862 115.752 945.862 117.432C945.862 119.064 946.87 119.928 948.31 119.928H963.766C971.398 119.928 975.478 123.144 975.478 130.248C975.478 136.392 971.638 141 963.766 141Z" fill="white"/>
<path fill-rule="evenodd" clip-rule="evenodd" d="M81.25 85H35V69.75C35 56.25 29 49.25 17 49.25H0V3.25H17C58.25 3.25 81.25 28 81.25 69.75V85ZM283.899 85H127.531C137.553 78.4047 151.258 75.25 168.4 75.25H230.65C238.15 75.25 243.4 70.75 243.4 62.25C243.4 53.5 238.15 49.25 230.65 49.25H109.4V3.25H230.65C269.9 3.25 291.4 26.25 291.4 57C291.4 67.6158 288.788 77.0959 283.899 85ZM386.67 85H340.42V69.75C340.42 56.25 334.42 49.25 322.42 49.25H305.42V3.25H322.42C363.67 3.25 386.67 28 386.67 69.75V85ZM547.878 85H489.812L518.32 49.25H408.32V3.25H558.07C578.82 3.25 587.07 13.25 587.07 24.75C587.07 31.25 585.32 37 578.32 46L547.878 85ZM792.497 85C788.842 35.3711 747.743 0.999997 695.262 0.999997C642.542 0.999997 601.659 35.3711 598.025 85H644.724C648.156 63.0462 664.1 47.25 695.262 47.25C726.424 47.25 742.175 63.0462 745.559 85H792.497ZM888.12 85H836.974L878.797 15.5C884.297 6.5 891.047 0.75 901.047 0.75C910.797 0.75 917.547 6.5 923.047 15.5L964.87 85H910.524L899.297 66L888.12 85Z" fill="#6F6F6F"/>
<path fill-rule="evenodd" clip-rule="evenodd" d="M33.3926 161V231H79.6426V161H33.3926ZM107.218 161C106.437 165.297 106.043 169.961 106.043 175V231H286.793V184.75H149.793V170.75C149.793 166.806 150.993 163.485 153.247 161H107.218ZM338.812 161V231H385.062V161H338.812ZM464.282 161L408.463 231H468.213L522.853 161H464.282ZM598.865 161C609.018 202.64 646.627 233.25 693.654 233.25C740.469 233.25 778.227 202.64 788.429 161H740.967C734.485 176.826 719.227 187 693.404 187C667.762 187 652.554 176.826 646.086 161H598.865ZM817.313 161L775.189 231H827.689L868.866 161H817.313ZM894.24 161L876.689 190.75H944.189L967.939 231H1023.44L981.316 161H894.24Z" fill="#6F6F6F"/>
</svg>
